<svg xmlns="http://www.w3.org/2000/svg" viewBox="0 0 128 128" role="img" aria-label="网页截屏">
  <defs>
    <linearGradient id="bg" x1="16" y1="8" x2="112" y2="120" gradientUnits="userSpaceOnUse">
      <stop offset="0" stop-color="#0ea5a3"/>
      <stop offset="1" stop-color="#2563eb"/>
    </linearGradient>
    <linearGradient id="paper" x1="22" y1="20" x2="98" y2="94" gradientUnits="userSpaceOnUse">
      <stop offset="0" stop-color="#ffffff"/>
      <stop offset="1" stop-color="#dff7ff"/>
    </linearGradient>
  </defs>
  <rect x="8" y="8" width="112" height="112" rx="26" fill="url(#bg)"/>
  <rect x="21" y="20" width="78" height="68" rx="10" fill="url(#paper)" stroke="#e0f2fe" stroke-width="5"/>
  <path d="M31 76l18-20 14 13 13-18 15 25H31z" fill="#5eead4" opacity=".95"/>
  <path d="M31 39h58" stroke="#38bdf8" stroke-width="5" stroke-linecap="round" stroke-dasharray="8 8"/>
  <path d="M75 98l36-25M112 98L76 74" stroke="#f8fafc" stroke-width="8" stroke-linecap="round"/>
  <path d="M75 98l36-25M112 98L76 74" stroke="#0f172a" stroke-width="4.5" stroke-linecap="round"/>
  <circle cx="77" cy="106" r="9" fill="none" stroke="#f8fafc" stroke-width="6"/>
  <circle cx="77" cy="106" r="9" fill="none" stroke="#0f172a" stroke-width="3.5"/>
  <circle cx="113" cy="106" r="9" fill="none" stroke="#f8fafc" stroke-width="6"/>
  <circle cx="113" cy="106" r="9" fill="none" stroke="#0f172a" stroke-width="3.5"/>
  <circle cx="96" cy="88" r="4" fill="#f8fafc"/>
  <circle cx="96" cy="88" r="2.2" fill="#0f172a"/>
</svg>
